<?xml version="1.0" standalone="no"?>
<!DOCTYPE svg PUBLIC "-//W3C//DTD SVG 20010904//EN"
 "http://www.w3.org/TR/2001/REC-SVG-20010904/DTD/svg10.dtd">
<svg version="1.0" xmlns="http://www.w3.org/2000/svg"
 width="1211.000000pt" height="417.000000pt" viewBox="0 0 1211.000000 417.000000"
 preserveAspectRatio="xMidYMid meet">

<g transform="translate(0.000000,417.000000) scale(0.100000,-0.100000)"
fill="rgb(100, 100, 100)" stroke="none">
<path d="M7015 4050 c-696 -34 -1014 -72 -1350 -161 -90 -24 -533 -243 -760
-376 -212 -124 -776 -467 -952 -579 -73 -46 -137 -84 -142 -84 -6 0 -11 -5
-11 -11 0 -5 -42 -30 -94 -55 -82 -39 -102 -44 -161 -44 -38 0 -82 -4 -99 -10
-17 -5 -128 -23 -246 -40 -877 -127 -1579 -282 -2165 -480 -277 -93 -561 -256
-669 -382 -39 -45 -118 -202 -160 -318 -43 -117 -73 -172 -131 -241 -31 -37
-57 -78 -61 -97 -13 -65 22 -323 75 -552 38 -168 41 -176 75 -205 40 -34 48
-75 19 -107 -15 -17 -15 -21 -1 -52 35 -72 142 -114 388 -150 52 -8 136 -21
185 -30 146 -25 476 -68 481 -63 3 2 9 30 14 62 5 32 11 59 12 61 2 1 520 10
1151 20 980 15 1152 16 1170 4 14 -9 66 -16 148 -20 101 -4 131 -9 146 -22 17
-16 48 -17 378 -12 198 2 1449 12 2780 20 l2419 15 16 22 c8 11 18 25 21 29
10 15 1879 73 1900 59 12 -7 20 -7 24 -1 3 6 27 10 52 10 36 0 44 -3 39 -15
-7 -20 4 -19 164 14 147 30 190 50 190 87 0 14 21 50 50 86 80 99 129 254 160
508 6 52 15 117 21 143 5 27 9 81 9 121 0 89 -16 117 -130 223 l-77 72 -6 203
c-4 112 -11 235 -17 273 -6 39 -13 153 -15 255 -4 222 -23 351 -65 445 -55
122 -75 160 -115 213 -132 175 -578 543 -888 732 -81 49 -88 56 -83 79 4 14 9
51 12 83 7 56 6 56 -26 73 -22 11 -75 20 -164 26 -163 11 -189 14 -466 49
-124 16 -301 36 -395 45 -93 9 -204 20 -245 26 -41 5 -165 14 -275 19 -110 5
-267 15 -350 21 -185 13 -1547 20 -1780 9z m727 -202 c6 -15 2 -150 -13 -448
-5 -118 -14 -342 -19 -497 -4 -155 -11 -287 -15 -293 -4 -6 -59 -10 -138 -10
-73 0 -235 -5 -362 -10 -126 -5 -392 -14 -590 -19 -416 -12 -869 -27 -1240
-42 -400 -15 -632 -20 -649 -13 -21 8 -20 28 0 45 11 9 47 14 108 15 90 1 142
16 169 49 12 14 -1 169 -18 230 -21 72 -34 86 -90 96 -117 22 -74 83 194 278
69 50 129 91 134 91 6 0 31 13 56 28 258 160 598 336 716 370 239 69 450 96
895 112 179 6 406 15 505 19 294 13 352 12 357 -1z m1025 -1 c5 -3 76 -6 159
-7 267 -3 634 -38 1004 -96 198 -31 409 -110 539 -202 413 -292 606 -468 848
-771 29 -36 53 -69 53 -73 0 -5 -66 -8 -147 -8 -80 0 -666 -13 -1302 -30 -636
-16 -1267 -31 -1402 -34 l-246 -4 -8 181 c-4 100 -8 191 -8 202 0 11 -3 70 -8
130 -4 61 -11 169 -14 240 -4 72 -10 180 -14 240 -3 61 -5 138 -3 172 l4 62
36 3 c59 5 500 0 509 -5z m-3056 -39 c11 -18 3 -26 -59 -57 -32 -15 -89 -47
-128 -69 -39 -23 -76 -42 -83 -42 -6 0 -11 -3 -11 -7 0 -5 -10 -13 -23 -19
-63 -31 -193 -99 -197 -103 -9 -11 -65 -46 -95 -61 -30 -15 -236 -148 -245
-159 -3 -3 -17 -12 -32 -20 -16 -8 -28 -18 -28 -23 0 -4 -6 -8 -13 -8 -7 0
-22 -8 -33 -17 -10 -10 -31 -24 -46 -32 -16 -8 -28 -18 -28 -23 0 -4 -4 -8
-10 -8 -9 0 -71 -43 -123 -86 -9 -8 -21 -14 -25 -14 -5 0 -17 -8 -28 -17 -10
-10 -31 -24 -46 -32 -16 -8 -28 -18 -28 -23 0 -4 -6 -8 -12 -8 -7 0 -26 -12
-43 -26 -16 -14 -42 -33 -57 -42 -16 -9 -28 -20 -28 -24 0 -4 -6 -8 -14 -8 -7
0 -26 -12 -43 -27 -16 -16 -36 -32 -45 -38 -22 -14 -186 -131 -233 -165 -43
-32 -65 -37 -65 -17 0 6 -27 32 -60 55 -33 24 -60 49 -60 56 0 11 91 76 106
76 3 0 65 41 140 90 74 50 137 90 139 90 3 0 59 35 125 78 65 42 154 97 197
122 42 25 96 56 119 70 22 14 76 47 120 73 43 26 120 72 169 101 50 29 133 77
185 108 52 31 121 68 152 82 31 14 59 30 62 35 8 12 244 128 279 136 15 4 30
12 33 17 9 14 105 2 115 -14z m6069 -1160 c0 -2 11 -57 25 -123 21 -98 25
-148 25 -277 l0 -158 -26 -6 c-14 -4 -62 -4 -106 0 -146 12 -166 41 -194 286
-10 84 -25 159 -40 199 -13 35 -24 67 -24 72 0 8 340 14 340 7z m-3768 -385
c19 -17 26 -107 9 -117 -14 -9 -685 -12 -698 -3 -20 13 -16 91 5 110 20 19 76
22 436 25 201 2 232 0 248 -15z m-7407 -497 c39 -13 95 -37 125 -53 53 -29 55
-32 54 -71 -1 -41 -30 -98 -99 -194 -52 -71 -65 -75 -273 -82 -100 -3 -186 -7
-190 -7 -28 -4 -33 3 -26 39 13 68 53 174 100 261 69 128 73 131 163 131 52 0
98 -8 146 -24z"/>
</g>
</svg>
